<mxfile host="app.diagrams.net" agent="Mozilla/5.0 (Windows NT 10.0; Win64; x64) AppleWebKit/537.36 (KHTML, like Gecko) Chrome/140.0.0.0 Safari/537.36 Edg/140.0.0.0" version="28.1.0">
  <diagram name="Página-1" id="696r6E-0CZbTcG02KJPg">
    <mxGraphModel dx="1418" dy="786" grid="1" gridSize="10" guides="1" tooltips="1" connect="1" arrows="1" fold="1" page="1" pageScale="1" pageWidth="1169" pageHeight="827" math="0" shadow="0">
      <root>
        <mxCell id="0" />
        <mxCell id="1" parent="0" />
        <mxCell id="AMZkXD04V7mK3b0o6Ux0-1" value="final" style="strokeWidth=2;html=1;shape=mxgraph.flowchart.terminator;whiteSpace=wrap;" vertex="1" parent="1">
          <mxGeometry x="1000" y="690" width="100" height="60" as="geometry" />
        </mxCell>
        <mxCell id="AMZkXD04V7mK3b0o6Ux0-3" value="Archivo Plano con los Items a Asignar" style="strokeWidth=2;html=1;shape=mxgraph.flowchart.document2;whiteSpace=wrap;size=0.25;" vertex="1" parent="1">
          <mxGeometry x="45" y="170" width="120" height="80" as="geometry" />
        </mxCell>
        <mxCell id="AMZkXD04V7mK3b0o6Ux0-4" value="Inicio del flujo" style="strokeWidth=2;html=1;shape=mxgraph.flowchart.start_2;whiteSpace=wrap;" vertex="1" parent="1">
          <mxGeometry x="55" y="20" width="100" height="100" as="geometry" />
        </mxCell>
        <mxCell id="AMZkXD04V7mK3b0o6Ux0-5" value="Cargar&amp;nbsp;&lt;div&gt;Archivo Plano&amp;nbsp;&lt;/div&gt;&lt;div&gt;al SFTP&amp;nbsp;&lt;/div&gt;&lt;div&gt;&lt;div&gt;&amp;nbsp;OSF CEO8&lt;/div&gt;&lt;/div&gt;" style="strokeWidth=2;html=1;shape=mxgraph.flowchart.stored_data;whiteSpace=wrap;" vertex="1" parent="1">
          <mxGeometry x="55" y="300" width="100" height="60" as="geometry" />
        </mxCell>
        <mxCell id="AMZkXD04V7mK3b0o6Ux0-6" style="edgeStyle=orthogonalEdgeStyle;rounded=0;orthogonalLoop=1;jettySize=auto;html=1;entryX=0.5;entryY=0;entryDx=0;entryDy=0;entryPerimeter=0;" edge="1" parent="1" source="AMZkXD04V7mK3b0o6Ux0-3" target="AMZkXD04V7mK3b0o6Ux0-5">
          <mxGeometry relative="1" as="geometry" />
        </mxCell>
        <mxCell id="AMZkXD04V7mK3b0o6Ux0-7" style="edgeStyle=orthogonalEdgeStyle;rounded=0;orthogonalLoop=1;jettySize=auto;html=1;entryX=0.5;entryY=0;entryDx=0;entryDy=0;entryPerimeter=0;" edge="1" parent="1" source="AMZkXD04V7mK3b0o6Ux0-4" target="AMZkXD04V7mK3b0o6Ux0-3">
          <mxGeometry relative="1" as="geometry" />
        </mxCell>
        <mxCell id="AMZkXD04V7mK3b0o6Ux0-8" value="Iniciar Sesión&lt;div&gt;&lt;span style=&quot;background-color: transparent; color: light-dark(rgb(0, 0, 0), rgb(255, 255, 255));&quot;&gt;en OSF&lt;/span&gt;&lt;/div&gt;" style="strokeWidth=2;html=1;shape=mxgraph.flowchart.start_1;whiteSpace=wrap;" vertex="1" parent="1">
          <mxGeometry x="505" y="20" width="120" height="80" as="geometry" />
        </mxCell>
        <mxCell id="AMZkXD04V7mK3b0o6Ux0-12" value="&lt;font style=&quot;font-size: 14px;&quot;&gt;NO&lt;/font&gt;" style="edgeStyle=orthogonalEdgeStyle;rounded=0;orthogonalLoop=1;jettySize=auto;html=1;entryX=0.5;entryY=1;entryDx=0;entryDy=0;entryPerimeter=0;" edge="1" parent="1" source="AMZkXD04V7mK3b0o6Ux0-9" target="AMZkXD04V7mK3b0o6Ux0-25">
          <mxGeometry relative="1" as="geometry">
            <mxPoint x="760" y="130" as="targetPoint" />
          </mxGeometry>
        </mxCell>
        <mxCell id="AMZkXD04V7mK3b0o6Ux0-16" value="&lt;font style=&quot;font-size: 14px;&quot;&gt;SI&lt;/font&gt;" style="edgeStyle=orthogonalEdgeStyle;rounded=0;orthogonalLoop=1;jettySize=auto;html=1;" edge="1" parent="1" source="AMZkXD04V7mK3b0o6Ux0-9" target="AMZkXD04V7mK3b0o6Ux0-15">
          <mxGeometry relative="1" as="geometry" />
        </mxCell>
        <mxCell id="AMZkXD04V7mK3b0o6Ux0-9" value="Tiene pe&lt;span style=&quot;background-color: transparent; color: light-dark(rgb(0, 0, 0), rgb(255, 255, 255));&quot;&gt;rmisos para la ejecutar la forma PB?&lt;/span&gt;" style="strokeWidth=2;html=1;shape=mxgraph.flowchart.decision;whiteSpace=wrap;" vertex="1" parent="1">
          <mxGeometry x="490" y="180" width="150" height="140" as="geometry" />
        </mxCell>
        <mxCell id="AMZkXD04V7mK3b0o6Ux0-10" value="" style="rounded=1;whiteSpace=wrap;html=1;absoluteArcSize=1;arcSize=14;strokeWidth=2;" vertex="1" parent="1">
          <mxGeometry x="800" y="320" width="100" height="100" as="geometry" />
        </mxCell>
        <mxCell id="AMZkXD04V7mK3b0o6Ux0-13" style="edgeStyle=orthogonalEdgeStyle;rounded=0;orthogonalLoop=1;jettySize=auto;html=1;exitX=0.5;exitY=1;exitDx=0;exitDy=0;exitPerimeter=0;entryX=0.5;entryY=0;entryDx=0;entryDy=0;entryPerimeter=0;" edge="1" parent="1" source="AMZkXD04V7mK3b0o6Ux0-8" target="AMZkXD04V7mK3b0o6Ux0-9">
          <mxGeometry relative="1" as="geometry" />
        </mxCell>
        <mxCell id="AMZkXD04V7mK3b0o6Ux0-18" value="" style="edgeStyle=orthogonalEdgeStyle;rounded=0;orthogonalLoop=1;jettySize=auto;html=1;" edge="1" parent="1" source="AMZkXD04V7mK3b0o6Ux0-15" target="AMZkXD04V7mK3b0o6Ux0-17">
          <mxGeometry relative="1" as="geometry" />
        </mxCell>
        <mxCell id="AMZkXD04V7mK3b0o6Ux0-15" value="Ejecutar la forma PB" style="whiteSpace=wrap;html=1;strokeWidth=2;" vertex="1" parent="1">
          <mxGeometry x="505" y="380" width="120" height="60" as="geometry" />
        </mxCell>
        <mxCell id="AMZkXD04V7mK3b0o6Ux0-17" value="Ingresar el Nombre del archivo" style="whiteSpace=wrap;html=1;strokeWidth=2;" vertex="1" parent="1">
          <mxGeometry x="505" y="480" width="120" height="60" as="geometry" />
        </mxCell>
        <mxCell id="AMZkXD04V7mK3b0o6Ux0-22" value="Archivo&lt;div&gt;Existe en&amp;nbsp;&lt;/div&gt;&lt;div&gt;la ruta FTP&lt;/div&gt;" style="strokeWidth=2;html=1;shape=mxgraph.flowchart.decision;whiteSpace=wrap;" vertex="1" parent="1">
          <mxGeometry x="495" y="580" width="140" height="130" as="geometry" />
        </mxCell>
        <mxCell id="AMZkXD04V7mK3b0o6Ux0-23" style="edgeStyle=orthogonalEdgeStyle;rounded=0;orthogonalLoop=1;jettySize=auto;html=1;entryX=0.5;entryY=0;entryDx=0;entryDy=0;entryPerimeter=0;" edge="1" parent="1" source="AMZkXD04V7mK3b0o6Ux0-17" target="AMZkXD04V7mK3b0o6Ux0-22">
          <mxGeometry relative="1" as="geometry" />
        </mxCell>
        <mxCell id="AMZkXD04V7mK3b0o6Ux0-25" value="&lt;font style=&quot;font-size: 11px;&quot;&gt;Solicitar&lt;/font&gt;&lt;div&gt;&lt;font style=&quot;font-size: 11px;&quot;&gt;Acceso&lt;/font&gt;&lt;/div&gt;&lt;div&gt;&lt;font style=&quot;font-size: 11px;&quot;&gt;&amp;nbsp;a la&lt;/font&gt;&lt;/div&gt;&lt;div&gt;&lt;font style=&quot;font-size: 11px;&quot;&gt;&amp;nbsp;Forma&lt;/font&gt;&lt;/div&gt;&lt;div&gt;&lt;font style=&quot;font-size: 11px;&quot;&gt;&lt;br&gt;&lt;/font&gt;&lt;/div&gt;" style="strokeWidth=2;html=1;shape=mxgraph.flowchart.merge_or_storage;whiteSpace=wrap;" vertex="1" parent="1">
          <mxGeometry x="700" y="50" width="120" height="90" as="geometry" />
        </mxCell>
      </root>
    </mxGraphModel>
  </diagram>
</mxfile>
